<?xml version="1.0" standalone="no"?>
<!DOCTYPE svg PUBLIC "-//W3C//DTD SVG 20010904//EN"
 "http://www.w3.org/TR/2001/REC-SVG-20010904/DTD/svg10.dtd">
<svg version="1.0" xmlns="http://www.w3.org/2000/svg"
 width="50.000000pt" height="50.000000pt" viewBox="0 0 50.000000 50.000000"
 preserveAspectRatio="xMidYMid meet">

<g transform="translate(0.000000,50.000000) scale(0.100000,-0.100000)"
fill="#000000" stroke="none">
<path d="M90 451 c-26 -49 -1 -121 42 -121 42 0 69 88 38 125 -18 22 -67 19
-80 -4z"/>
<path d="M330 455 c-31 -38 -4 -125 40 -125 41 0 65 73 40 121 -13 23 -62 26
-80 4z"/>
<path d="M429 145 c-109 -84 -235 -88 -349 -9 -51 35 -80 39 -80 10 0 -18 50
-60 104 -88 57 -30 185 -37 252 -14 57 19 144 80 144 100 0 7 -6 19 -13 25
-11 8 -24 3 -58 -24z"/>
</g>
</svg>
