<?xml version="1.0" encoding="UTF-8"?>
<svg xmlns="http://www.w3.org/2000/svg" xmlns:xlink="http://www.w3.org/1999/xlink" width="50pt" height="50pt" viewBox="0 0 50 50" version="1.1">
<g id="surface1">
<path style=" stroke:none;fill-rule:nonzero;fill:rgb(0%,0%,0%);fill-opacity:1;" d="M 10.03125 4.785156 C 7.484375 6.09375 6.09375 7.484375 4.859375 10.03125 C 3.242188 13.117188 3.085938 14.582031 3.085938 25.078125 C 3.085938 35.570312 3.242188 37.035156 4.859375 40.125 C 6.09375 42.667969 7.484375 44.058594 10.03125 45.371094 C 13.117188 46.914062 14.582031 47.066406 25.078125 47.066406 C 35.570312 47.066406 37.035156 46.914062 40.125 45.292969 C 42.667969 44.058594 44.058594 42.667969 45.371094 40.125 C 46.914062 37.035156 47.066406 35.570312 47.066406 25.078125 C 47.066406 14.582031 46.914062 13.117188 45.371094 10.03125 C 44.058594 7.484375 42.667969 6.09375 40.125 4.785156 C 37.035156 3.242188 35.570312 3.085938 25.078125 3.085938 C 14.582031 3.085938 13.117188 3.242188 10.03125 4.785156 Z M 38.582031 7.5625 C 43.132812 9.800781 43.980469 12.65625 43.980469 25.078125 C 43.980469 42.515625 42.515625 43.980469 25.078125 43.980469 C 7.640625 43.980469 6.171875 42.515625 6.171875 25.078125 C 6.171875 7.640625 7.640625 6.171875 25.078125 6.171875 C 33.796875 6.171875 36.417969 6.40625 38.582031 7.5625 Z M 38.582031 7.5625 "/>
<path style=" stroke:none;fill-rule:nonzero;fill:rgb(0%,0%,0%);fill-opacity:1;" d="M 15.816406 16.820312 C 11.882812 21.066406 9.953125 32.949219 12.886719 34.644531 C 14.507812 35.492188 15.972656 34.800781 19.136719 31.714844 C 20.371094 30.402344 22.300781 29.167969 23.457031 28.859375 C 25.925781 28.242188 29.707031 29.707031 31.480469 31.945312 C 33.488281 34.492188 35.570312 35.492188 37.191406 34.644531 C 40.199219 33.023438 38.273438 21.066406 34.335938 16.820312 C 32.5625 14.890625 32.097656 14.816406 25.078125 14.816406 C 18.054688 14.816406 17.59375 14.890625 15.816406 16.820312 Z M 32.40625 17.976562 C 34.722656 19.136719 36.960938 25 37.035156 29.859375 C 37.035156 34.027344 36.109375 34.105469 32.175781 30.246094 C 29.550781 27.699219 28.859375 27.390625 25.078125 27.390625 C 21.296875 27.390625 20.601562 27.699219 17.976562 30.246094 C 16.28125 31.867188 14.582031 33.179688 14.042969 33.179688 C 12.65625 33.179688 12.964844 27.316406 14.507812 22.761719 C 16.125 17.976562 17.976562 16.976562 25.078125 16.976562 C 28.085938 16.976562 31.328125 17.4375 32.40625 17.976562 Z M 32.40625 17.976562 "/>
<path style=" stroke:none;fill-rule:nonzero;fill:rgb(0%,0%,0%);fill-opacity:1;" d="M 17.902344 21.992188 C 17.128906 22.917969 17.207031 23.378906 18.285156 24.613281 C 19.597656 26.15625 19.597656 26.15625 21.066406 24.691406 C 22.300781 23.300781 22.300781 22.992188 21.296875 21.992188 C 19.90625 20.601562 19.214844 20.601562 17.902344 21.992188 Z M 17.902344 21.992188 "/>
<path style=" stroke:none;fill-rule:nonzero;fill:rgb(0%,0%,0%);fill-opacity:1;" d="M 30.09375 21.683594 C 30.09375 22.066406 30.476562 22.222656 30.863281 21.992188 C 31.328125 21.757812 31.636719 21.375 31.636719 21.140625 C 31.636719 20.988281 31.328125 20.832031 30.863281 20.832031 C 30.476562 20.832031 30.09375 21.21875 30.09375 21.683594 Z M 30.09375 21.683594 "/>
<path style=" stroke:none;fill-rule:nonzero;fill:rgb(0%,0%,0%);fill-opacity:1;" d="M 27.777344 23.148438 C 27.777344 23.535156 28.164062 23.917969 28.550781 23.917969 C 29.011719 23.917969 29.320312 23.535156 29.320312 23.148438 C 29.320312 22.683594 29.011719 22.375 28.550781 22.375 C 28.164062 22.375 27.777344 22.683594 27.777344 23.148438 Z M 27.777344 23.148438 "/>
<path style=" stroke:none;fill-rule:nonzero;fill:rgb(0%,0%,0%);fill-opacity:1;" d="M 31.636719 23.148438 C 31.636719 23.535156 32.023438 23.917969 32.40625 23.917969 C 32.871094 23.917969 33.179688 23.535156 33.179688 23.148438 C 33.179688 22.683594 32.871094 22.375 32.40625 22.375 C 32.023438 22.375 31.636719 22.683594 31.636719 23.148438 Z M 31.636719 23.148438 "/>
<path style=" stroke:none;fill-rule:nonzero;fill:rgb(0%,0%,0%);fill-opacity:1;" d="M 30.09375 25.539062 C 30.09375 25.925781 30.476562 26.082031 30.863281 25.847656 C 31.328125 25.617188 31.636719 25.230469 31.636719 25 C 31.636719 24.84375 31.328125 24.691406 30.863281 24.691406 C 30.476562 24.691406 30.09375 25.078125 30.09375 25.539062 Z M 30.09375 25.539062 "/>
</g>
</svg>
