<?xml version="1.0" standalone="no"?>
<!DOCTYPE svg PUBLIC "-//W3C//DTD SVG 20010904//EN"
 "http://www.w3.org/TR/2001/REC-SVG-20010904/DTD/svg10.dtd">
<svg version="1.0" xmlns="http://www.w3.org/2000/svg"
 width="65.000000pt" height="65.000000pt" viewBox="0 0 65.000000 65.000000"
 preserveAspectRatio="xMidYMid meet">

<g transform="translate(0.000000,65.000000) scale(0.100000,-0.100000)"
fill="#000000" stroke="none">
<path d="M130 588 c-33 -17 -51 -35 -67 -68 -21 -40 -23 -59 -23 -195 0 -136
2 -155 23 -195 16 -33 34 -51 67 -68 40 -20 59 -22 195 -22 136 0 155 2 195
23 33 16 51 34 68 67 20 40 22 59 22 195 0 136 -2 155 -22 195 -17 33 -35 51
-68 68 -40 20 -59 22 -195 22 -136 0 -155 -2 -195 -22z m370 -36 c59 -29 70
-66 70 -227 0 -226 -19 -245 -245 -245 -226 0 -245 19 -245 245 0 226 19 245
245 245 113 0 147 -3 175 -18z"/>
<path d="M205 432 c-51 -55 -76 -209 -38 -231 21 -11 40 -2 81 38 16 17 41 33
56 37 32 8 81 -11 104 -40 26 -33 53 -46 74 -35 39 21 14 176 -37 231 -23 25
-29 26 -120 26 -91 0 -97 -1 -120 -26z m215 -15 c30 -15 59 -91 60 -154 0 -54
-12 -55 -63 -5 -34 33 -43 37 -92 37 -49 0 -58 -4 -92 -37 -22 -21 -44 -38
-51 -38 -18 0 -14 76 6 135 21 62 45 75 137 75 39 0 81 -6 95 -13z"/>
<path d="M232 365 c-10 -12 -9 -18 5 -34 17 -20 17 -20 36 -1 16 18 16 22 3
35 -18 18 -27 18 -44 0z"/>
<path d="M390 369 c0 -5 5 -7 10 -4 6 3 10 8 10 11 0 2 -4 4 -10 4 -5 0 -10
-5 -10 -11z"/>
<path d="M360 350 c0 -5 5 -10 10 -10 6 0 10 5 10 10 0 6 -4 10 -10 10 -5 0
-10 -4 -10 -10z"/>
<path d="M410 350 c0 -5 5 -10 10 -10 6 0 10 5 10 10 0 6 -4 10 -10 10 -5 0
-10 -4 -10 -10z"/>
<path d="M390 319 c0 -5 5 -7 10 -4 6 3 10 8 10 11 0 2 -4 4 -10 4 -5 0 -10
-5 -10 -11z"/>
</g>
</svg>
