<?xml version="1.0" standalone="no"?>
<!DOCTYPE svg PUBLIC "-//W3C//DTD SVG 20010904//EN"
 "http://www.w3.org/TR/2001/REC-SVG-20010904/DTD/svg10.dtd">
<svg version="1.0" xmlns="http://www.w3.org/2000/svg"
 width="100.000000pt" height="100.000000pt" viewBox="0 0 100.000000 100.000000"
 preserveAspectRatio="xMidYMid meet">

<g transform="translate(0.000000,100.000000) scale(0.100000,-0.100000)"
fill="#000000" stroke="none">
<path d="M226 920 c-66 -26 -122 -82 -146 -147 -18 -48 -20 -78 -20 -273 0
-258 10 -299 84 -368 72 -66 110 -74 373 -70 255 3 283 10 351 81 63 65 72
110 72 357 0 252 -10 296 -78 363 -70 68 -111 77 -365 77 -195 -1 -228 -3
-271 -20z m509 -54 c63 -20 112 -68 130 -130 21 -69 21 -403 1 -471 -20 -63
-68 -112 -130 -130 -70 -21 -402 -21 -472 0 -62 18 -110 67 -130 130 -21 70
-20 414 1 477 20 57 69 105 126 123 64 20 409 20 474 1z"/>
<path d="M345 697 c-14 -5 -25 -13 -25 -18 0 -6 -9 -19 -20 -31 -43 -46 -88
-218 -74 -282 17 -84 63 -86 147 -7 100 92 158 91 257 -4 64 -60 95 -69 126
-34 26 29 23 142 -5 223 -26 74 -78 156 -100 157 -90 5 -286 2 -306 -4z m257
-42 c36 -5 53 -13 72 -36 40 -48 77 -196 62 -253 -9 -38 -39 -32 -79 15 -45
51 -99 79 -157 79 -58 0 -112 -28 -157 -79 -60 -70 -93 -45 -79 58 10 79 35
150 64 182 23 26 37 31 97 38 70 7 88 7 177 -4z"/>
<path d="M370 570 c0 -11 -7 -20 -15 -20 -8 0 -15 -7 -15 -15 0 -8 6 -15 14
-15 7 0 16 -9 19 -20 6 -23 37 -27 37 -5 0 9 7 18 15 21 8 4 15 12 15 19 0 7
-7 15 -15 19 -8 3 -15 12 -15 21 0 8 -9 15 -20 15 -13 0 -20 -7 -20 -20z"/>
<path d="M597 584 c-13 -13 -7 -24 14 -24 11 0 19 5 17 12 -5 14 -22 21 -31
12z"/>
<path d="M560 535 c0 -8 7 -15 15 -15 8 0 15 7 15 15 0 8 -7 15 -15 15 -8 0
-15 -7 -15 -15z"/>
<path d="M630 535 c0 -8 7 -15 15 -15 8 0 15 7 15 15 0 8 -7 15 -15 15 -8 0
-15 -7 -15 -15z"/>
<path d="M593 498 c2 -7 10 -13 17 -13 7 0 15 6 18 13 2 7 -5 12 -18 12 -13 0
-20 -5 -17 -12z"/>
</g>
</svg>
